<?xml version="1.0" encoding="UTF-8" standalone="no"?>
<svg id="svg2" xmlns="http://www.w3.org/2000/svg" height="2e3" width="3e3" version="1.0" viewBox="0 -410 3080 1900">
 <text id="text2171" xml:space="preserve" font-size="12px" y="-946.41162" x="-471.24011" font-family="Lello" fill="#000000"><tspan id="tspan2173" y="-946.41162" x="-471.24011"/></text>
 <path id="text2175" d="m1199.1 543h-525.56l-92.11 214.24c-22.69 52.73-34.03 92.1-34.03 118.13 0 20.69 9.84 38.88 29.53 54.56 19.69 15.69 62.24 25.87 127.64 30.54v37.04h-427.47v-37.04c56.73-10.01 93.43-23.03 110.12-39.05 34.04-32.03 71.75-97.1 113.12-195.21l477.54-1117.2 35.02-0.04 472.5 1129.2c38.1 90.82 72.6 149.72 103.7 176.75 31 27.03 74.2 42.21 129.6 45.55v37.04h-535.6v-37.04c54.1-2.67 90.6-11.68 109.6-27.03s28.6-34.04 28.6-56.07c0-29.36-13.4-75.75-40.1-139.15l-82.1-195.22zm-28-74.08l-230.27-548.61-236.26 548.61h466.53zm1360.5-388.43h170.2l-103.1 463.51c-20 88.1-33.7 142.16-41.1 162.18 26.7 122.81 65.4 184.21 116.2 184.21 60 0 91.1-41.38 93.1-124.14h36c-2 77.42-16.2 139.99-42.5 187.71-26.4 47.74-60.9 71.54-103.7 71.54-35.3 0-61.7-14.3-79-43.01-17.4-28.7-36.1-87.43-56.1-176.19-69.4 146.16-182.9 219.2-340.4 219.2-107.4 0-192.9-41.84-256.3-125.6s-95.1-203.73-95.1-359.9c0-153.5 34.7-272.97 104.1-358.4 69.4-85.426 152.9-128.14 250.3-128.14 68.8 0 125.2 24.361 169.2 73.08 44.1 48.72 83.1 128.14 117.1 238.27l61.1-284.32zm-88.1 392.44c-31.4-107.46-66.4-191.38-105.1-251.78s-85.1-90.6-139.2-90.6c-122.1 0-183.2 142.82-183.2 428.47 0 270.97 58.4 406.45 175.2 406.45 101.5 0 176.6-119.46 225.3-358.4l27-134.14z"/>
</svg>
