<?xml version="1.0" encoding="UTF-8" standalone="no"?>
<svg
   xmlns:dc="http://purl.org/dc/elements/1.1/"
   xmlns:cc="http://web.resource.org/cc/"
   xmlns:rdf="http://www.w3.org/1999/02/22-rdf-syntax-ns#"
   xmlns:svg="http://www.w3.org/2000/svg"
   xmlns="http://www.w3.org/2000/svg"
   xmlns:sodipodi="http://sodipodi.sourceforge.net/DTD/sodipodi-0.dtd"
   xmlns:inkscape="http://www.inkscape.org/namespaces/inkscape"
   width="3000"
   height="2000"
   viewBox="0 -410 3080 1900"
   id="svg2"
   sodipodi:version="0.32"
   inkscape:version="0.45.1"
   sodipodi:docname="Mu_uc_lc.svg"
   inkscape:output_extension="org.inkscape.output.svg.inkscape"
   sodipodi:docbase="C:\Documents and Settings\Flanker\Desktop"
   version="1.0">
  <metadata
     id="metadata15">
    <rdf:RDF>
      <cc:Work
         rdf:about="">
        <dc:format>image/svg+xml</dc:format>
        <dc:type
           rdf:resource="http://purl.org/dc/dcmitype/StillImage" />
      </cc:Work>
    </rdf:RDF>
  </metadata>
  <defs
     id="defs13" />
  <sodipodi:namedview
     inkscape:window-height="1005"
     inkscape:window-width="1280"
     inkscape:pageshadow="2"
     inkscape:pageopacity="0.0"
     guidetolerance="10.0"
     gridtolerance="10.0"
     objecttolerance="10.0"
     borderopacity="1.0"
     bordercolor="#666666"
     pagecolor="#ffffff"
     id="base"
     inkscape:zoom="0.19947368"
     inkscape:cx="1540"
     inkscape:cy="1351.0554"
     inkscape:window-x="-4"
     inkscape:window-y="-4"
     inkscape:current-layer="svg2"
     width="3000px"
     height="2000px"
     inkscape:showpageshadow="false" />
  <text
     xml:space="preserve"
     style="font-size:12px;font-style:normal;font-weight:normal;fill:#000000;fill-opacity:1;stroke:none;stroke-width:1px;stroke-linecap:butt;stroke-linejoin:miter;stroke-opacity:1;font-family:Lello"
     x="-471.24011"
     y="-946.41162"
     id="text2171"><tspan
       sodipodi:role="line"
       id="tspan2173"
       x="-471.24011"
       y="-946.41162"></tspan></text>
  <path
     style="font-size:2050.27807617px;font-style:normal;font-weight:normal;fill:#000000;fill-opacity:1;stroke:none;stroke-width:1px;stroke-linecap:butt;stroke-linejoin:miter;stroke-opacity:1;font-family:Times New Roman"
     d="M 901.79091,997.50836 L 377.20804,-144.76082 L 377.20804,762.24696 C 377.20773,845.67314 386.21773,897.73093 404.23807,918.42049 C 428.93181,946.45168 467.97515,960.46724 521.36822,960.46721 L 569.42161,960.46721 L 569.42161,997.50836 L 96.896584,997.50836 L 96.896584,960.46721 L 144.94998,960.46721 C 202.34694,960.46724 243.05881,943.11465 267.08568,908.40936 C 281.76844,887.05241 289.10993,838.33166 289.11015,762.24696 L 289.11015,-124.73857 C 289.10993,-184.80413 282.43585,-228.18562 269.08791,-254.88318 C 259.74399,-274.23674 242.55825,-290.42138 217.53062,-303.43713 C 192.50268,-316.45027 152.29138,-322.9575 96.896584,-322.95882 L 96.896584,-359.99997 L 481.32372,-359.99997 L 973.871,702.18022 L 1458.4094,-359.99997 L 1842.8365,-359.99997 L 1842.8365,-322.95882 L 1795.7842,-322.95882 C 1737.718,-322.9575 1696.6725,-305.6049 1672.6474,-270.90098 C 1657.9628,-249.54267 1650.6214,-200.82191 1650.6229,-124.73857 L 1650.6229,762.24696 C 1650.6214,845.67314 1659.9651,897.73093 1678.6541,918.42049 C 1703.3465,946.45168 1742.3899,960.46724 1795.7842,960.46721 L 1842.8365,960.46721 L 1842.8365,997.50836 L 1266.1958,997.50836 L 1266.1958,960.46721 L 1314.2492,960.46721 C 1372.3124,960.46724 1413.0243,943.11465 1436.3849,908.40936 C 1451.0665,887.05241 1458.408,838.33166 1458.4094,762.24696 L 1458.4094,-144.76082 L 934.82761,997.50836 L 901.79091,997.50836 z M 2613.693,831.32371 C 2492.8915,960.80095 2387.7748,1025.5395 2298.3426,1025.5395 C 2240.9451,1025.5395 2187.5525,1003.515 2138.1646,959.46609 L 2138.1646,1012.525 C 2138.1643,1073.9265 2147.5081,1135.6617 2166.1957,1197.7308 C 2187.5525,1266.4736 2198.231,1311.8573 2198.2313,1333.8821 C 2198.231,1364.5825 2188.5536,1389.944 2169.1991,1409.9666 C 2149.844,1429.9885 2125.8173,1439.9996 2097.119,1440 C 2067.7529,1439.9996 2044.3936,1428.3199 2027.0411,1404.9611 C 2009.6884,1381.6014 2001.0121,1353.5703 2001.0122,1320.8676 C 2001.0121,1296.8407 2009.6884,1253.4592 2027.0411,1190.723 C 2047.0632,1121.3125 2057.0743,1053.9043 2057.0745,988.49835 L 2057.0745,80.489457 L 2222.258,80.489457 L 2222.258,674.14908 C 2222.2577,734.21608 2227.4301,778.26498 2237.7753,806.2959 C 2248.1197,834.32721 2266.4735,857.18592 2292.8365,874.8721 C 2319.1986,892.55852 2349.0651,901.40167 2382.436,901.40158 C 2441.8348,901.40167 2518.9204,860.68981 2613.693,779.26587 L 2613.693,80.489457 L 2779.8776,80.489457 L 2779.8776,776.26253 C 2779.8767,834.99462 2785.8834,875.53963 2797.8976,897.89768 C 2809.9101,920.25594 2830.266,931.43501 2858.9655,931.43495 C 2904.3482,931.43501 2933.7142,887.05241 2947.0634,798.28701 L 2983.1034,798.28701 C 2970.4216,949.78872 2906.3505,1025.5395 2790.8898,1025.5395 C 2740.8334,1025.5395 2699.2873,1008.6874 2666.2514,974.98333 C 2633.2139,941.27927 2615.6945,893.39278 2613.693,831.32371 L 2613.693,831.32371 z "
     id="text2175" />
</svg>
