<?xml version="1.0" encoding="UTF-8" standalone="no"?>
<!-- Created with Inkscape (http://www.inkscape.org/) -->

<svg
   xmlns:dc="http://purl.org/dc/elements/1.1/"
   xmlns:cc="http://creativecommons.org/ns#"
   xmlns:rdf="http://www.w3.org/1999/02/22-rdf-syntax-ns#"
   xmlns:svg="http://www.w3.org/2000/svg"
   xmlns="http://www.w3.org/2000/svg"
   version="1.0"
   width="40"
   height="56.398376"
   id="svg3722">
  <metadata
     id="metadata12">
    <rdf:RDF>
      <cc:Work
         rdf:about="">
        <dc:format>image/svg+xml</dc:format>
        <dc:type
           rdf:resource="http://purl.org/dc/dcmitype/StillImage" />
        <dc:title></dc:title>
      </cc:Work>
    </rdf:RDF>
  </metadata>
  <defs
     id="defs3724" />
  <g
     transform="translate(-96.65099,-49.638305)"
     id="layer1">
    <path
       d="M -6.747045,43.769292 L -1,43.596291"
       transform="translate(92.349419,49.877281)"
       id="path3741"
       style="fill:none;stroke:#000000;stroke-width:0.1;stroke-linecap:butt;stroke-linejoin:miter;stroke-miterlimit:4;stroke-opacity:1;stroke-dasharray:none" />
    <path
       d="m 137.41192,93.646573 l 5.74704,-0.173001"
       id="path4513"
       style="fill:none;stroke:#000000;stroke-width:0.1;stroke-linecap:butt;stroke-linejoin:miter;stroke-miterlimit:4;stroke-opacity:1;stroke-dasharray:none" />
    <g
       transform="matrix(1.3,0,0,1.3,-31.982501,-28.752109)"
       id="text2989"
       style="font-size:44px;font-style:normal;font-variant:normal;font-weight:normal;font-stretch:normal;text-align:start;line-height:100%;letter-spacing:0px;word-spacing:0px;writing-mode:lr-tb;text-anchor:start;fill:#000000;fill-opacity:1;stroke:none;font-family:GFS Didot;-inkscape-font-specification:GFS Didot">
      <path
         d="m 127.75221,81.956492 c 0,-2.507997 -0.704,-4.708002 -2.156,-6.6 c -1.584,-2.067998 -3.608,-3.124 -6.072,-3.124 c -2.772,0 -4.664,1.408003 -5.764,4.268 c -0.836,2.067998 -1.232,5.016004 -1.232,8.888 c 0,0.879999 0.044,2.112002 0.132,3.74 c 0.044,1.451999 0.044,2.464001 0.044,3.036 c -4.444,0 -7.568,-2.728004 -7.568,-7.128 c 0,-4.663995 1.76,-7.656001 5.236,-8.976 c 0.396,-0.967999 0.616,-1.848001 0.616,-2.596 c 0,-0.923999 -0.396,-1.364 -1.144,-1.364 c -2.288,0 -4.312,1.452003 -6.072,4.312 c -1.584,2.507997 -2.376,4.972002 -2.376,7.392 c 0,5.895994 3.696,9.240001 11.132,10.076 c -0.044,0.615999 -0.22,1.848002 -0.528,3.74 c -0.308,1.539998 -0.484,2.727998 -0.484,3.651998 c 0,1.584 0.792,2.376 2.376,2.376 c 1.276,0 1.892,-0.792 1.892,-2.42 c 0,-0.836 -0.132,-2.112 -0.396,-3.739998 c -0.22,-1.627998 -0.352,-2.816001 -0.396,-3.652 c 3.78399,-0.308 6.776,-1.408002 8.976,-3.256 c 2.508,-2.111998 3.784,-4.972004 3.784,-8.624 m -4.312,-0.748 c 0,2.815997 -0.704,5.192002 -2.156,7.172 c -1.54,2.067998 -3.60801,3.388001 -6.292,3.916 c -0.044,-0.835999 -0.088,-2.024001 -0.088,-3.476 c 0,-0.22 0,-0.792001 -0.044,-1.672 c -0.044,-0.879999 -0.044,-1.628001 -0.044,-2.2 c 0,-7.127993 1.452,-10.692 4.356,-10.692 c 1.452,0 2.596,0.836002 3.344,2.552 c 0.616,1.275999 0.924,2.772002 0.924,4.4"
         id="path3034" />
    </g>
  </g>
</svg>
