<?xml version="1.0" encoding="UTF-8" standalone="no"?>
<svg
   xmlns:dc="http://purl.org/dc/elements/1.1/"
   xmlns:cc="http://web.resource.org/cc/"
   xmlns:rdf="http://www.w3.org/1999/02/22-rdf-syntax-ns#"
   xmlns:svg="http://www.w3.org/2000/svg"
   xmlns="http://www.w3.org/2000/svg"
   xmlns:sodipodi="http://sodipodi.sourceforge.net/DTD/sodipodi-0.dtd"
   xmlns:inkscape="http://www.inkscape.org/namespaces/inkscape"
   width="3000"
   height="2000"
   viewBox="0 -410 3080 1900"
   id="svg2"
   sodipodi:version="0.32"
   inkscape:version="0.45.1"
   sodipodi:docname="Mu_uc_lc.svg"
   inkscape:output_extension="org.inkscape.output.svg.inkscape"
   sodipodi:docbase="C:\Documents and Settings\Flanker\Desktop"
   version="1.0">
  <metadata
     id="metadata15">
    <rdf:RDF>
      <cc:Work
         rdf:about="">
        <dc:format>image/svg+xml</dc:format>
        <dc:type
           rdf:resource="http://purl.org/dc/dcmitype/StillImage" />
      </cc:Work>
    </rdf:RDF>
  </metadata>
  <defs
     id="defs13" />
  <sodipodi:namedview
     inkscape:window-height="1005"
     inkscape:window-width="1280"
     inkscape:pageshadow="2"
     inkscape:pageopacity="0.0"
     guidetolerance="10.0"
     gridtolerance="10.0"
     objecttolerance="10.0"
     borderopacity="1.0"
     bordercolor="#666666"
     pagecolor="#ffffff"
     id="base"
     inkscape:zoom="0.19947368"
     inkscape:cx="1605.3276"
     inkscape:cy="1351.0554"
     inkscape:window-x="-4"
     inkscape:window-y="-4"
     inkscape:current-layer="svg2"
     width="3000px"
     height="2000px"
     inkscape:showpageshadow="false" />
  <text
     xml:space="preserve"
     style="font-size:12px;font-style:normal;font-weight:normal;fill:#000000;fill-opacity:1;stroke:none;stroke-width:1px;stroke-linecap:butt;stroke-linejoin:miter;stroke-opacity:1;font-family:Lello"
     x="-471.24011"
     y="-946.41162"
     id="text2171"><tspan
       sodipodi:role="line"
       id="tspan2173"
       x="-471.24011"
       y="-946.41162"></tspan></text>
  <path
     style="font-size:2050.27807617px;font-style:normal;font-weight:normal;fill:#000000;fill-opacity:1;stroke:none;stroke-width:1px;stroke-linecap:butt;stroke-linejoin:miter;stroke-opacity:1;font-family:Times New Roman"
     d="M 62.532554,-359.99997 L 1080.663,-359.99997 L 1107.6931,-18.620665 L 1069.6508,-18.620665 C 1064.9779,-86.027813 1053.632,-137.58505 1035.6132,-173.29252 C 1017.5924,-208.99766 992.89859,-234.8597 961.53137,-250.87873 C 930.16228,-266.89526 880.44042,-274.90415 812.36563,-274.90542 L 348.85061,-274.90542 L 762.31001,255.68412 L 291.78721,811.30147 L 807.36007,811.30147 C 900.79635,811.30165 972.20896,796.28498 1021.5978,766.25141 C 1070.9846,736.2183 1108.0257,673.48199 1132.7209,578.04229 L 1170.7632,587.0523 L 1112.6986,997.50836 L 62.532554,997.50836 L 62.532554,961.46832 L 585.11313,344.78311 L 62.532554,-323.95993 L 62.532554,-359.99997 z "
     id="path2246" />
  <path
     style="font-size:2050.27807617px;font-style:normal;font-weight:normal;fill:#000000;fill-opacity:1;stroke:none;stroke-width:1px;stroke-linecap:butt;stroke-linejoin:miter;stroke-opacity:1;font-family:Times New Roman"
     d="M 1709.6563 552.4375 C 1601.7436 552.43839 1516.1004 565.43544 1452.7188 591.4375 C 1389.3363 617.44125 1333.749 665.86159 1285.9688 736.71875 C 1238.1883 807.57734 1214.2811 889.15893 1214.2813 981.46875 C 1214.2812 1112.1337 1259.8023 1226.7017 1350.8125 1325.1875 C 1441.8225 1423.6736 1550.0668 1472.9375 1675.5313 1472.9375 C 1781.4925 1472.9375 1876.2149 1438.1515 1959.75 1368.5938 C 2043.2834 1299.0361 2085.0615 1211.2746 2085.0625 1105.3125 C 2085.0615 1024.0538 2058.7487 947.1711 2006.0938 874.6875 C 1953.437 802.20501 1885.4898 742.23728 1802.2813 694.78125 L 2182.5625 694.78125 L 2182.5625 552.4375 L 1709.6563 552.4375 z M 1702.8125 694.78125 L 1736.9375 694.78125 C 1855.9002 814.3953 1915.4055 945.3845 1915.4063 1087.75 C 1915.4055 1177.4603 1893.9353 1254.0243 1851.0313 1317.4063 C 1808.1257 1380.7884 1753.8442 1412.4688 1688.1875 1412.4688 C 1606.2779 1412.4688 1534.7939 1370.3721 1473.6875 1286.1875 C 1412.5803 1202.0033 1381.9998 1104.9877 1382 995.125 C 1381.9998 891.76395 1411.0995 815.86859 1469.2813 767.4375 C 1527.4624 719.00779 1605.3011 694.782 1702.8125 694.78125 z "
     transform="matrix(1.0266667,0,0,1.0266667,0,-486.66667)"
     id="path2244" />
  <path
     style="font-size:2050.27807617px;font-style:normal;font-weight:normal;fill:#000000;fill-opacity:1;stroke:none;stroke-width:1px;stroke-linecap:butt;stroke-linejoin:miter;stroke-opacity:1;font-family:Times New Roman"
     d="M 2296.463,639.11014 C 2296.4629,474.92824 2346.3517,336.27432 2446.1293,223.14797 C 2545.9065,110.02316 2664.2045,53.460367 2801.0236,53.459423 C 2865.7616,53.460367 2914.8161,64.639444 2948.1872,86.996687 C 2981.5568,109.35575 2998.242,136.88631 2998.2428,169.58846 C 2998.242,189.61151 2990.7337,206.2967 2975.7177,219.64407 C 2960.7003,232.993 2943.8483,239.66708 2925.1616,239.66632 C 2900.4668,239.66708 2864.7605,230.99078 2818.0425,213.6374 C 2763.3145,193.61596 2717.9308,183.60484 2681.8913,183.60403 C 2586.4515,183.60484 2511.3682,223.81615 2456.641,304.23807 C 2401.9133,384.66137 2374.5496,480.60121 2374.5498,592.05786 C 2374.5496,673.48199 2395.4061,735.21719 2437.1193,777.26365 C 2478.8321,819.31054 2550.4115,840.33388 2651.8579,840.33372 C 2680.556,840.33388 2710.923,839.66647 2742.9591,838.3315 C 2770.3223,837.66425 2788.0086,837.33055 2796.0181,837.33039 C 2870.7672,837.33055 2924.994,861.19037 2958.6988,908.90992 C 2992.4022,956.62965 3009.2542,1017.8643 3009.255,1092.614 C 3009.2542,1196.0621 2981.39,1279.8218 2925.6621,1343.8932 C 2869.9329,1407.964 2797.686,1439.9996 2708.9213,1440 C 2620.1556,1439.9996 2575.773,1410.2999 2575.7734,1350.901 C 2575.773,1307.5192 2597.1301,1285.8284 2639.8446,1285.8287 C 2654.5271,1285.8284 2687.2301,1292.8362 2737.9536,1306.8521 C 2760.6449,1313.5258 2779.3323,1316.8629 2794.0159,1316.8632 C 2826.0508,1316.8629 2857.9196,1302.5136 2889.6221,1273.8154 C 2921.3233,1245.1166 2937.1742,1202.0688 2937.1749,1144.6719 C 2937.1742,1062.5806 2900.4668,1021.535 2827.0526,1021.5351 C 2813.7038,1021.535 2797.686,1022.2024 2778.9992,1023.5373 C 2722.9364,1028.2091 2681.8908,1030.545 2655.8623,1030.5451 C 2549.7441,1030.545 2463.3148,995.67299 2396.5743,925.92883 C 2329.8333,856.18481 2296.4629,760.57868 2296.463,639.11014 L 2296.463,639.11014 z "
     id="text2175" />
</svg>
