<?xml version="1.0" encoding="UTF-8" standalone="no"?>
<!-- Created with Inkscape (http://www.inkscape.org/) -->

<svg
   xmlns:dc="http://purl.org/dc/elements/1.1/"
   xmlns:cc="http://creativecommons.org/ns#"
   xmlns:rdf="http://www.w3.org/1999/02/22-rdf-syntax-ns#"
   xmlns:svg="http://www.w3.org/2000/svg"
   xmlns="http://www.w3.org/2000/svg"
   xmlns:sodipodi="http://sodipodi.sourceforge.net/DTD/sodipodi-0.dtd"
   xmlns:inkscape="http://www.inkscape.org/namespaces/inkscape"
   id="svg4624"
   version="1.1"
   inkscape:version="0.48.5 r10040"
   width="707.5506"
   height="272.68774"
   xml:space="preserve"
   sodipodi:docname="predmeti.svg"
   inkscape:export-filename="/Users/tadej/workspace/web/fmf.si/site/fmf.si/img/home/predmeti.png"
   inkscape:export-xdpi="23.150288"
   inkscape:export-ydpi="23.150288"><metadata
     id="metadata4630"><rdf:RDF><cc:Work
         rdf:about=""><dc:format>image/svg+xml</dc:format><dc:type
           rdf:resource="http://purl.org/dc/dcmitype/StillImage" /><dc:title></dc:title></cc:Work></rdf:RDF></metadata><defs
     id="defs4628"><clipPath
       clipPathUnits="userSpaceOnUse"
       id="clipPath4736"><path
         d="M 0,800 800,800 800,0 0,0 0,800 z"
         id="path4738"
         inkscape:connector-curvature="0" /></clipPath><clipPath
       clipPathUnits="userSpaceOnUse"
       id="clipPath4908"><path
         d="M 0,800 800,800 800,0 0,0 0,800 z"
         id="path4910"
         inkscape:connector-curvature="0" /></clipPath><clipPath
       clipPathUnits="userSpaceOnUse"
       id="clipPath4984"><path
         d="m 94.2725,636.969 577.1855,0 0,-403.149 -577.1855,0 0,403.149 z"
         id="path4986"
         inkscape:connector-curvature="0" /></clipPath><clipPath
       clipPathUnits="userSpaceOnUse"
       id="clipPath4988"><path
         d="m 180.189,541.137 91.339,0 0,-91.337 -91.339,0 0,91.337 z"
         id="path4990"
         inkscape:connector-curvature="0" /></clipPath><clipPath
       clipPathUnits="userSpaceOnUse"
       id="clipPath4992"><path
         d="m 247.773,578.59 138.789,0 0,-138.789 -138.789,0 0,138.789 z"
         id="path4994"
         inkscape:connector-curvature="0" /></clipPath><clipPath
       clipPathUnits="userSpaceOnUse"
       id="clipPath4996"><path
         d="m 292.354,555.458 189.647,0 0,-189.645 -189.647,0 0,189.645 z"
         id="path4998"
         inkscape:connector-curvature="0" /></clipPath><clipPath
       clipPathUnits="userSpaceOnUse"
       id="clipPath5000"><path
         d="m 400.488,636.969 147.604,0 0,-147.6 -147.604,0 0,147.6 z"
         id="path5002"
         inkscape:connector-curvature="0" /></clipPath><clipPath
       clipPathUnits="userSpaceOnUse"
       id="clipPath5004"><path
         d="m 238.559,503.688 190.568,0 0,-190.571 -190.568,0 0,190.571 z"
         id="path5006"
         inkscape:connector-curvature="0" /></clipPath><clipPath
       clipPathUnits="userSpaceOnUse"
       id="clipPath5008"><path
         d="m 451.158,518.006 220.3,0 0,-220.298 -220.3,0 0,220.298 z"
         id="path5010"
         inkscape:connector-curvature="0" /></clipPath><clipPath
       clipPathUnits="userSpaceOnUse"
       id="clipPath5012"><path
         d="m 372.254,434.294 132.845,0 0,-132.843 -132.845,0 0,132.843 z"
         id="path5014"
         inkscape:connector-curvature="0" /></clipPath><clipPath
       clipPathUnits="userSpaceOnUse"
       id="clipPath5016"><path
         d="m 201.117,616.04 237.561,0 0,-237.559 -237.561,0 0,237.559 z"
         id="path5018"
         inkscape:connector-curvature="0" /></clipPath><clipPath
       clipPathUnits="userSpaceOnUse"
       id="clipPath5020"><path
         d="m 136.129,479.455 245.635,0 0,-245.635 -245.635,0 0,245.635 z"
         id="path5022"
         inkscape:connector-curvature="0" /></clipPath><clipPath
       clipPathUnits="userSpaceOnUse"
       id="clipPath5024"><path
         d="m 144.941,616.04 198.695,0 0,-198.696 -198.695,0 0,198.696 z"
         id="path5026"
         inkscape:connector-curvature="0" /></clipPath><clipPath
       clipPathUnits="userSpaceOnUse"
       id="clipPath5028"><path
         d="m 94.2725,518.006 147.0505,0 0,-147.05 -147.0505,0 0,147.05 z"
         id="path5030"
         inkscape:connector-curvature="0" /></clipPath></defs><sodipodi:namedview
     pagecolor="#ffffff"
     bordercolor="#666666"
     borderopacity="1"
     objecttolerance="10"
     gridtolerance="10"
     guidetolerance="10"
     inkscape:pageopacity="0"
     inkscape:pageshadow="2"
     inkscape:window-width="1440"
     inkscape:window-height="798"
     id="namedview4626"
     showgrid="false"
     inkscape:zoom="0.6675088"
     inkscape:cx="336.60489"
     inkscape:cy="263.92981"
     inkscape:window-x="0"
     inkscape:window-y="0"
     inkscape:window-maximized="1"
     inkscape:current-layer="g4906"
     fit-margin-top="-350"
     fit-margin-left="10"
     fit-margin-right="-200"
     fit-margin-bottom="0" /><g
     id="g4632"
     inkscape:groupmode="layer"
     inkscape:label="16"
     transform="matrix(1.25,0,0,-1.25,-41.225625,523.844)"><path
       d="m 759.021,699.075 -718.04,0 0,-478.366 718.04,0 0,478.366 z"
       style="fill:#a67c52;fill-opacity:1;fill-rule:nonzero;stroke:none"
       id="path4892"
       inkscape:connector-curvature="0" /><g
       id="g4894"
       transform="translate(759.0205,699.0752)"><path
         d="m 0,0 -718.04,0 19.911,-17.854 678.216,0 L 0,0 z"
         style="fill:#c69c6d;fill-opacity:1;fill-rule:nonzero;stroke:none"
         id="path4896"
         inkscape:connector-curvature="0" /></g><path
       d="m 759.021,200.925 -718.04,0 0,16.512 718.04,0 0,-16.512 z"
       style="fill:#009245;fill-opacity:1;fill-rule:nonzero;stroke:none"
       id="path4898"
       inkscape:connector-curvature="0" /><path
       d="m 759.021,204.177 -718.04,0 0,14.62 718.04,0 0,-14.62 z"
       style="fill:#8cc63f;fill-opacity:1;fill-rule:nonzero;stroke:none"
       id="path4900"
       inkscape:connector-curvature="0" /><path
       d="m 739.107,220.709 -678.216,0 0,460.512 678.216,0 0,-460.512 z"
       style="fill:#1a1a1a;fill-opacity:1;fill-rule:nonzero;stroke:none"
       id="path4902"
       inkscape:connector-curvature="0" /><g
       id="g4904"><g
         id="g4906"
         clip-path="url(#clipPath4908)"><g
           id="g4980"><g
             id="g4982" /><g
             id="g5032"><g
               clip-path="url(#clipPath4984)"
               id="g5034"
               style="opacity:0.39999402"><g
                 id="g5036"><g
                   id="g5038" /><g
                   id="g5040"><g
                     clip-path="url(#clipPath4988)"
                     id="g5042"
                     style="opacity:0.10000598"><g
                       transform="translate(271.5278,495.4707)"
                       id="g5044"><path
                         d="m 0,0 c 0,-25.226 -20.446,-45.671 -45.669,-45.671 -25.224,0 -45.67,20.445 -45.67,45.671 0,25.222 20.446,45.666 45.67,45.666 C -20.446,45.666 0,25.222 0,0"
                         style="fill:#ffffff;fill-opacity:1;fill-rule:nonzero;stroke:none"
                         id="path5046"
                         inkscape:connector-curvature="0" /></g></g></g></g><g
                 id="g5048"><g
                   id="g5050" /><g
                   id="g5052"><g
                     clip-path="url(#clipPath4992)"
                     id="g5054"
                     style="opacity:0.10000598"><g
                       transform="translate(386.5625,509.1963)"
                       id="g5056"><path
                         d="m 0,0 c 0,-38.329 -31.068,-69.396 -69.394,-69.396 -38.326,0 -69.395,31.067 -69.395,69.396 0,38.323 31.069,69.394 69.395,69.394 C -31.068,69.394 0,38.323 0,0"
                         style="fill:#ffffff;fill-opacity:1;fill-rule:nonzero;stroke:none"
                         id="path5058"
                         inkscape:connector-curvature="0" /></g></g></g></g><g
                 id="g5060"><g
                   id="g5062" /><g
                   id="g5064"><g
                     clip-path="url(#clipPath4996)"
                     id="g5066"
                     style="opacity:0.10000598"><g
                       transform="translate(482.001,460.6338)"
                       id="g5068"><path
                         d="m 0,0 c 0,-52.368 -42.453,-94.82 -94.824,-94.82 -52.369,0 -94.822,42.452 -94.822,94.82 0,52.37 42.453,94.825 94.822,94.825 C -42.453,94.825 0,52.37 0,0"
                         style="fill:#ffffff;fill-opacity:1;fill-rule:nonzero;stroke:none"
                         id="path5070"
                         inkscape:connector-curvature="0" /></g></g></g></g><g
                 id="g5072"><g
                   id="g5074" /><g
                   id="g5076"><g
                     clip-path="url(#clipPath5000)"
                     id="g5078"
                     style="opacity:0.10000598"><g
                       transform="translate(548.0918,563.1675)"
                       id="g5080"><path
                         d="m 0,0 c 0,-40.759 -33.044,-73.798 -73.803,-73.798 -40.759,0 -73.801,33.039 -73.801,73.798 0,40.759 33.042,73.801 73.801,73.801 C -33.044,73.801 0,40.759 0,0"
                         style="fill:#ffffff;fill-opacity:1;fill-rule:nonzero;stroke:none"
                         id="path5082"
                         inkscape:connector-curvature="0" /></g></g></g></g><g
                 id="g5084"><g
                   id="g5086" /><g
                   id="g5088"><g
                     clip-path="url(#clipPath5004)"
                     id="g5090"
                     style="opacity:0.10000598"><g
                       transform="translate(429.127,408.4023)"
                       id="g5092"><path
                         d="m 0,0 c 0,-52.623 -42.659,-95.285 -95.284,-95.285 -52.623,0 -95.284,42.662 -95.284,95.285 0,52.625 42.661,95.286 95.284,95.286 C -42.659,95.286 0,52.625 0,0"
                         style="fill:#ffffff;fill-opacity:1;fill-rule:nonzero;stroke:none"
                         id="path5094"
                         inkscape:connector-curvature="0" /></g></g></g></g><g
                 id="g5096"><g
                   id="g5098" /><g
                   id="g5100"><g
                     clip-path="url(#clipPath5008)"
                     id="g5102"
                     style="opacity:0.10000598"><g
                       transform="translate(671.458,407.8564)"
                       id="g5104"><path
                         d="m 0,0 c 0,-60.837 -49.316,-110.148 -110.149,-110.148 -60.834,0 -110.151,49.311 -110.151,110.148 0,60.836 49.317,110.149 110.151,110.149 C -49.316,110.149 0,60.836 0,0"
                         style="fill:#ffffff;fill-opacity:1;fill-rule:nonzero;stroke:none"
                         id="path5106"
                         inkscape:connector-curvature="0" /></g></g></g></g><g
                 id="g5108"><g
                   id="g5110" /><g
                   id="g5112"><g
                     clip-path="url(#clipPath5012)"
                     id="g5114"
                     style="opacity:0.10000598"><g
                       transform="translate(505.0986,367.8691)"
                       id="g5116"><path
                         d="m 0,0 c 0,-36.68 -29.74,-66.418 -66.421,-66.418 -36.685,0 -66.424,29.738 -66.424,66.418 0,36.684 29.739,66.425 66.424,66.425 C -29.74,66.425 0,36.684 0,0"
                         style="fill:#ffffff;fill-opacity:1;fill-rule:nonzero;stroke:none"
                         id="path5118"
                         inkscape:connector-curvature="0" /></g></g></g></g><g
                 id="g5120"><g
                   id="g5122" /><g
                   id="g5124"><g
                     clip-path="url(#clipPath5016)"
                     id="g5126"
                     style="opacity:0.10000598"><g
                       transform="translate(438.6777,497.2598)"
                       id="g5128"><path
                         d="m 0,0 c 0,-65.599 -53.181,-118.778 -118.781,-118.778 -65.599,0 -118.78,53.179 -118.78,118.778 0,65.6 53.181,118.78 118.78,118.78 C -53.181,118.78 0,65.6 0,0"
                         style="fill:#ffffff;fill-opacity:1;fill-rule:nonzero;stroke:none"
                         id="path5130"
                         inkscape:connector-curvature="0" /></g></g></g></g><g
                 id="g5132"><g
                   id="g5134" /><g
                   id="g5136"><g
                     clip-path="url(#clipPath5020)"
                     id="g5138"
                     style="opacity:0.10000598"><g
                       transform="translate(381.7637,356.6396)"
                       id="g5140"><path
                         d="m 0,0 c 0,-67.832 -54.987,-122.819 -122.817,-122.819 -67.83,0 -122.818,54.987 -122.818,122.819 0,67.827 54.988,122.815 122.818,122.815 C -54.987,122.815 0,67.827 0,0"
                         style="fill:#ffffff;fill-opacity:1;fill-rule:nonzero;stroke:none"
                         id="path5142"
                         inkscape:connector-curvature="0" /></g></g></g></g><g
                 id="g5144"><g
                   id="g5146" /><g
                   id="g5148"><g
                     clip-path="url(#clipPath5024)"
                     id="g5150"
                     style="opacity:0.10000598"><g
                       transform="translate(343.6362,516.6934)"
                       id="g5152"><path
                         d="m 0,0 c 0,-54.87 -44.479,-99.35 -99.347,-99.35 -54.868,0 -99.348,44.48 -99.348,99.35 0,54.867 44.48,99.347 99.348,99.347 C -44.479,99.347 0,54.867 0,0"
                         style="fill:#ffffff;fill-opacity:1;fill-rule:nonzero;stroke:none"
                         id="path5154"
                         inkscape:connector-curvature="0" /></g></g></g></g><g
                 id="g5156"><g
                   id="g5158" /><g
                   id="g5160"><g
                     clip-path="url(#clipPath5028)"
                     id="g5162"
                     style="opacity:0.10000598"><g
                       transform="translate(241.3228,444.4814)"
                       id="g5164"><path
                         d="m 0,0 c 0,-40.606 -32.918,-73.525 -73.525,-73.525 -40.607,0 -73.525,32.919 -73.525,73.525 0,40.606 32.918,73.524 73.525,73.524 C -32.918,73.524 0,40.606 0,0"
                         style="fill:#ffffff;fill-opacity:1;fill-rule:nonzero;stroke:none"
                         id="path5166"
                         inkscape:connector-curvature="0" /></g></g></g></g></g></g></g><g
           id="g4950"
           transform="translate(170.4644,250.9072)"><path
             d="m 0,0 c 0,1.667 -1.352,3.018 -3.018,3.018 l -77.191,0 c -1.667,0 -3.018,-1.351 -3.018,-3.018 l 0,-27.524 c 0,-1.666 1.351,-3.018 3.018,-3.018 l 77.191,0 c 1.666,0 3.018,1.352 3.018,3.018 L 0,0 z"
             style="fill:#4d4d4d;fill-opacity:1;fill-rule:nonzero;stroke:none"
             id="path4952"
             inkscape:connector-curvature="0" /></g><g
           id="g4954"
           transform="translate(111.7358,253.9248)"><path
             d="m 0,0 -21.481,0 c -1.666,0 -3.018,-1.351 -3.018,-3.018 l 0,-27.524 c 0,-1.666 1.352,-3.018 3.018,-3.018 L 0,-33.56 0,0 z"
             style="fill:#666666;fill-opacity:1;fill-rule:nonzero;stroke:none"
             id="path4956"
             inkscape:connector-curvature="0" /></g><g
           id="g4958"
           transform="translate(167.4463,253.9248)"><path
             d="m 0,0 -20.138,0 0,-33.56 20.138,0 c 1.667,0 3.018,1.352 3.018,3.018 l 0,27.524 C 3.018,-1.351 1.667,0 0,0"
             style="fill:#666666;fill-opacity:1;fill-rule:nonzero;stroke:none"
             id="path4960"
             inkscape:connector-curvature="0" /></g><g
           id="g4962"
           transform="translate(170.4644,242.8506)"><path
             d="m 0,0 0,8.057 c 0,1.667 -1.352,3.017 -3.018,3.017 l -77.191,0 c -1.667,0 -3.018,-1.35 -3.018,-3.017 L -83.227,0 0,0 z"
             style="fill:#006837;fill-opacity:1;fill-rule:nonzero;stroke:none"
             id="path4964"
             inkscape:connector-curvature="0" /></g><g
           id="g4966"
           transform="translate(170.4644,245.5352)"><path
             d="M 0,0 0,5.372 C 0,7.039 -1.352,8.39 -3.018,8.39 l -77.191,0 c -1.667,0 -3.018,-1.351 -3.018,-3.018 L -83.227,0 0,0 z"
             style="fill:#8c6239;fill-opacity:1;fill-rule:nonzero;stroke:none"
             id="path4968"
             inkscape:connector-curvature="0" /></g><g
           id="g4970"
           transform="translate(475.7715,222.2178)"><path
             d="m 0,0 c 0,-0.834 -0.676,-1.509 -1.51,-1.509 l -39.011,0 c -0.831,0 -1.508,0.675 -1.508,1.509 l 0,8.176 c 0,0.834 0.677,1.509 1.508,1.509 l 39.011,0 C -0.676,9.685 0,9.01 0,8.176 L 0,0 z"
             style="fill:#f2f2f2;fill-opacity:1;fill-rule:nonzero;stroke:none"
             id="path4972"
             inkscape:connector-curvature="0" /></g><g
           id="g4974"
           transform="translate(553.9141,222.2178)"><path
             d="m 0,0 c 0,-0.834 -0.675,-1.509 -1.509,-1.509 l -54.427,0 c -0.834,0 -5.457,3.569 -5.457,4.403 l 0,2.698 c 0,0.834 4.623,4.093 5.457,4.093 l 54.427,0 C -0.675,9.685 0,9.01 0,8.176 L 0,0 z"
             style="fill:#f2f2f2;fill-opacity:1;fill-rule:nonzero;stroke:none"
             id="path4976"
             inkscape:connector-curvature="0" /></g><path
           d="m 759.021,217.989 -718.04,0 0,2.72 718.04,0 0,-2.72 z"
           style="fill:#d9e021;fill-opacity:1;fill-rule:nonzero;stroke:none"
           id="path4978"
           inkscape:connector-curvature="0" /></g></g></g></svg>